<svg xmlns="http://www.w3.org/2000/svg" viewBox="0 0 64 64" role="img" aria-label="GovSchema">
  <rect width="64" height="64" rx="12" fill="#163a6b"/>
  <!-- { } mark drawn as vector strokes (font-independent; renders identically in
       every rasterizer — favicon, OG, print). Primary mark per brand.json.
       Geometry refined GOV-208 (board logo-pick concept "L1 — refined bracket"):
       deeper, crisper elbow for a more confident brace at small sizes; interim
       placeholder pending the board's final mark confirmation (GOV-197). -->
  <g fill="none" stroke="#ffffff" stroke-width="3.2" stroke-linecap="round" stroke-linejoin="round">
    <path d="M30 18 C26.6 18 26 19.6 26 22 L26 29 C26 30.3 24.6 31 18.5 32 C24.6 33 26 33.7 26 35 L26 42 C26 44.4 26.6 46 30 46"/>
    <path d="M34 18 C37.4 18 38 19.6 38 22 L38 29 C38 30.3 39.4 31 45.5 32 C39.4 33 38 33.7 38 35 L38 42 C38 44.4 37.4 46 34 46"/>
  </g>
</svg>
