<svg xmlns="http://www.w3.org/2000/svg" viewBox="0 0 480 96" role="img" aria-label="GovSchema — open standards for agent–government interaction">
  <rect x="0" y="16" width="64" height="64" rx="12" fill="#1a1a18"/>
  <!-- Same vector { } mark as favicon.svg (GOV-208 refined geometry, board-confirmed
       GOV-197), offset into the 64×64 badge. Recolored GOV-303 Phase 6 onto
       Direction C ink/paper/muted (was navy/white/graphite). -->
  <g transform="translate(0,16)" fill="none" stroke="#f4f1ea" stroke-width="3.2" stroke-linecap="round" stroke-linejoin="round">
    <path d="M30 18 C26.6 18 26 19.6 26 22 L26 29 C26 30.3 24.6 31 18.5 32 C24.6 33 26 33.7 26 35 L26 42 C26 44.4 26.6 46 30 46"/>
    <path d="M34 18 C37.4 18 38 19.6 38 22 L38 29 C38 30.3 39.4 31 45.5 32 C39.4 33 38 33.7 38 35 L38 42 C38 44.4 37.4 46 34 46"/>
  </g>
  <text x="84" y="52" font-family="'IBM Plex Sans', -apple-system, 'Segoe UI', Roboto, Helvetica, Arial, sans-serif"
        font-size="38" font-weight="600" fill="#1a1a18" letter-spacing="-0.5">GovSchema</text>
  <text x="86" y="76" font-family="'IBM Plex Mono', ui-monospace, 'SF Mono', Menlo, monospace"
        font-size="11.5" font-weight="600" fill="#6b6a62" letter-spacing="0.5">OPEN STANDARDS FOR AGENT–GOVERNMENT INTERACTION</text>
</svg>
