<svg xmlns="http://www.w3.org/2000/svg" viewBox="0 0 1039 235" role="img" aria-label="GovSchema — open standards for agent–government interaction">
  <!-- GOV-666 fix (2026-07-02): replaced the corrupted GOV-666 (#136) trace
       (stray off-palette patch fills over glyph gaps) with the corrected
       icon + wordmark paths — see assets/brand/wordmark.svg for detail.
       Tagline row kept at the same relative role the retired { } lockup
       used, so this file's contract (a self-contained lockup + tagline for
       external/press use) is unchanged; viewBox/tagline baseline shifted
       +5px to match this mark's slightly taller (178 vs 173) icon. -->
  <path d="M985.49 143.409C971.021 143.409 960.39 135.584 960.39 120.819C960.39 104.134 973.235 99.2617 987.705 97.6376C1003.65 95.8658 1007.93 93.9463 1007.93 89.2215C1007.93 85.0872 1006.01 81.9866 999.96 81.9866C993.906 81.9866 990.806 85.5302 990.068 90.9933H963.638C964.229 76.0805 975.745 63.8255 999.37 63.8255C1010.89 63.8255 1018.27 65.302 1024.03 68.8456C1031.85 73.7181 1035.69 81.396 1035.69 91.4362V129.087C1035.69 135.436 1036.13 138.832 1038.5 140.309V141.49H1011.03C1010 139.718 1009.11 137.356 1008.52 133.221H1008.23C1003.21 140.161 995.235 143.409 985.49 143.409ZM987.262 119.638C987.262 124.658 991.396 126.872 995.974 126.872C1002.47 126.872 1008.67 123.181 1008.67 114.174V107.53C1006.01 108.859 1002.62 110.04 997.893 111.074C989.772 112.846 987.262 115.208 987.262 119.638Z" fill="#1A1A18"/>
  <path d="M833.363 141.49V66.1879H859.94V77.4094H860.383C865.698 68.698 872.933 63.8255 884.302 63.8255C894.343 63.8255 901.873 68.698 905.712 76.9664H906.155C912.651 66.9262 921.067 63.8255 930.812 63.8255C949.269 63.8255 957.242 76.8188 957.242 94.094V141.49H929.336V99.2617C929.336 91.5839 926.826 86.5638 919.738 86.5638C912.799 86.5638 909.255 92.7651 909.255 100.886V141.49H881.349V99.2617C881.349 91.5839 878.839 86.5638 871.752 86.5638C864.812 86.5638 861.269 92.7651 861.269 100.886V141.49H833.363Z" fill="#1A1A18"/>
  <path d="M789.481 143.557C764.824 143.557 748.287 126.725 748.287 103.691C748.287 80.953 764.676 63.6779 788.448 63.6779C800.26 63.6779 809.267 67.5168 816.206 73.8658C825.361 82.2819 829.643 95.7181 829.347 110.631H775.602C777.226 119.342 781.951 124.658 790.367 124.658C795.24 124.658 798.783 122.738 800.851 119.047H827.871C826.247 125.839 820.931 132.483 813.549 137.208C806.609 141.638 799.079 143.557 789.481 143.557ZM775.602 95.8658H801.589C800.408 87.4497 795.683 82.4295 789.038 82.4295C781.361 82.4295 777.079 87.5973 775.602 95.8658Z" fill="#1A1A18"/>
  <path d="M667.249 141.49V35.9195H695.156V74.7517H695.598C701.209 68.2551 708.001 63.8255 718.484 63.8255C735.907 63.8255 744.914 75.49 744.914 92.7651V141.49H717.008V99.5571C717.008 91.7316 713.76 86.5638 706.525 86.5638C699.437 86.5638 695.156 92.7651 695.156 100.886V141.49H667.249Z" fill="#1A1A18"/>
  <path d="M625.967 143.852C601.162 143.852 584.625 126.872 584.625 103.987C584.625 81.1007 601.162 63.9731 625.967 63.9731C647.229 63.9731 661.403 76.5235 663.323 94.094H636.45C634.974 87.302 631.726 83.4631 625.672 83.4631C617.108 83.4631 612.974 91.2886 612.974 103.987C612.974 116.537 617.403 124.215 625.967 124.215C632.759 124.215 636.155 119.638 636.893 111.074H663.766C663.766 129.678 648.558 143.852 625.967 143.852Z" fill="#1A1A18"/>
  <path d="M537.364 144C509.901 144 489.082 132.188 488.639 107.826H520.236C521.27 116.242 527.767 120.228 537.954 120.228C544.008 120.228 551.391 117.866 551.391 111.517C551.391 105.168 544.303 103.544 531.31 100.295C513.592 95.8658 492.183 89.8121 492.183 67.3691C492.183 43.1544 511.968 34 535.74 34C557.592 34 577.673 43.1544 578.116 66.1879H547.552C546.666 60.4295 542.532 56.7383 534.116 56.7383C527.324 56.7383 522.599 59.8389 522.599 64.1208C522.599 70.3221 531.605 71.2081 547.404 75.047C565.122 79.3289 582.84 86.2685 582.84 108.711C582.84 131.745 562.317 144 537.364 144Z" fill="#1A1A18"/>
  <path d="M433.323 141.49L407.484 66.1879H436.424L444.987 95.1275C447.202 102.805 449.86 113.289 449.86 113.289H450.155C450.155 113.289 452.961 102.805 455.175 95.1275L463.739 66.1879H491.793L465.954 141.49H433.323Z" fill="#1A1A18"/>
  <path d="M371.39 143.852C346.29 143.852 330.048 126.872 330.048 103.987C330.048 81.1007 346.29 63.9731 371.39 63.9731C396.491 63.9731 412.437 81.1007 412.437 103.987C412.437 126.872 396.491 143.852 371.39 143.852ZM358.397 103.987C358.397 116.685 362.531 125.248 371.095 125.248C379.659 125.248 384.088 116.685 384.088 103.987C384.088 91.2886 379.659 82.7248 371.095 82.7248C362.531 82.7248 358.397 91.2886 358.397 103.987Z" fill="#1A1A18"/>
  <path d="M273.463 144C259.289 144 247.181 139.128 238.617 129.973C228.872 119.638 224 105.463 224 89.0738C224 57.9195 243.785 34 276.416 34C304.027 34 321.45 48.3221 324.846 71.7987H295.02C293.396 65.0067 287.047 59.396 277.597 59.396C262.832 59.396 255.302 71.7987 255.302 89.0738C255.302 106.349 263.866 119.195 278.779 119.195C290 119.195 295.463 113.141 297.383 106.054H283.356V84.2013H326.913V141.49H306.389L304.027 130.268H303.732C297.087 139.866 286.309 144 273.463 144Z" fill="#1A1A18"/>
  <path d="M89 0C129.838 0 164.25 27.5049 174.726 65H127V115H174.141C163.018 151.469 129.108 178 89 178C39.8467 178 0 138.153 0 89C0 39.8467 39.8467 0 89 0Z" fill="#1A1A18"/>
  <text x="2" y="210" font-family="'IBM Plex Mono', ui-monospace, 'SF Mono', Menlo, monospace"
        font-size="24" font-weight="600" fill="#6b6a62" letter-spacing="0.5">OPEN STANDARDS FOR AGENT–GOVERNMENT INTERACTION</text>
</svg>
